<svg width="100%" viewBox="0 0 680 380" role="img" xmlns="http://www.w3.org/2000/svg" font-family="-apple-system, 'Helvetica Neue', Helvetica, Arial, sans-serif">
<title>PermissionPilot — drop-in SwiftUI onboarding + permissions for macOS</title>
<desc>App-themed hero: dark surfaces, system-blue accent, green granted checks. The PermissionPilot wordmark and tagline on the left; on the right a macOS window titled Permissions with a 3 by 3 grid of permission tiles — Accessibility, Screen Recording, Input Monitoring, Full Disk, Camera, Microphone, Bluetooth, Location, Notifications — five marked granted, conveying an extensible set plus your own.</desc>
<defs>
 <linearGradient id="bgA" x1="0" y1="0" x2="1" y2="1"><stop offset="0" stop-color="#1b1b1d"/><stop offset="1" stop-color="#161617"/></linearGradient>
 <radialGradient id="gB" cx="0.5" cy="0.5" r="0.5"><stop offset="0" stop-color="#0a84ff" stop-opacity="0.18"/><stop offset="1" stop-color="#0a84ff" stop-opacity="0"/></radialGradient>
 <radialGradient id="orbB" cx="0.4" cy="0.35" r="0.75"><stop offset="0" stop-color="#7fbcff"/><stop offset="0.6" stop-color="#0a55b0"/><stop offset="1" stop-color="#08233f"/></radialGradient>
 <linearGradient id="winA" x1="0" y1="0" x2="0" y2="1"><stop offset="0" stop-color="#242426"/><stop offset="1" stop-color="#1c1c1e"/></linearGradient>
</defs>
<rect x="0" y="0" width="680" height="380" rx="16" fill="url(#bgA)"/>
<ellipse cx="520" cy="40" rx="280" ry="190" fill="url(#gB)"/>

<rect x="36" y="34" width="106" height="28" rx="14" fill="rgba(10,132,255,.14)" stroke="rgba(10,132,255,.45)" stroke-width="1"/>
<text x="89" y="53" font-size="12" font-weight="600" text-anchor="middle" fill="#4aa3ff">macOS · v0.1</text>
<text x="35" y="118" font-size="38" font-weight="800" fill="#f5f5f7">Permission</text>
<text x="35" y="156" font-size="38" font-weight="800" fill="#0a84ff">Pilot</text>
<text x="38" y="186" font-size="13" fill="#aeaeb2">Drop-in onboarding + permissions</text>
<text x="38" y="205" font-size="13" fill="#aeaeb2">for macOS apps. Zero dependencies.</text>

<g font-size="11.5" text-anchor="middle">
 <rect x="36" y="224" width="58" height="25" rx="12.5" fill="rgba(10,132,255,.14)" stroke="rgba(10,132,255,.45)" stroke-width="1"/><text x="65" y="240" fill="#f5f5f7">Detect</text>
 <rect x="102" y="224" width="80" height="25" rx="12.5" fill="rgba(10,132,255,.14)" stroke="rgba(10,132,255,.45)" stroke-width="1"/><text x="142" y="240" fill="#f5f5f7">Deep-link</text>
 <rect x="36" y="256" width="100" height="25" rx="12.5" fill="rgba(10,132,255,.14)" stroke="rgba(10,132,255,.45)" stroke-width="1"/><text x="86" y="272" fill="#f5f5f7">Auto-recheck</text>
 <rect x="144" y="256" width="74" height="25" rx="12.5" fill="rgba(10,132,255,.14)" stroke="rgba(10,132,255,.45)" stroke-width="1"/><text x="181" y="272" fill="#f5f5f7">Wizard</text>
</g>
<text x="38" y="312" font-size="11" fill="#aeaeb2">macOS 12+ · SwiftUI · MIT</text>

<rect x="330" y="40" width="314" height="300" rx="16" fill="url(#winA)" stroke="rgba(255,255,255,.10)" stroke-width="1"/>
<circle cx="348" cy="62" r="4" fill="#ff5f57"/><circle cx="362" cy="62" r="4" fill="#febc2e"/><circle cx="376" cy="62" r="4" fill="#28c840"/>
<text x="346" y="92" font-size="13" font-weight="700" fill="#f5f5f7">Permissions</text>
<text x="346" y="109" font-size="11" font-weight="600" fill="#aeaeb2">5 of 9 enabled · extensible</text>
<circle cx="612" cy="78" r="20" fill="#0a84ff" opacity="0.16"/><circle cx="612" cy="78" r="15" fill="url(#orbB)" stroke="rgba(127,188,255,.6)"/>
<path d="M612 70 L619 73 L619 80 C619 84 615.5 86.5 612 88 C608.5 86.5 605 84 605 80 L605 73 Z" fill="#f5f5f7"/><path d="M609 79 l2.2 2.2 l3.8 -4.3" stroke="#1c1c1e" stroke-width="1.6" fill="none" stroke-linecap="round" stroke-linejoin="round"/>

<g fill="#c7c7cc" font-size="9" text-anchor="middle">
 <rect x="346" y="124" width="84" height="64" rx="10" fill="rgba(255,255,255,.05)" stroke="rgba(255,255,255,.09)" stroke-width="1"/>
 <circle cx="388" cy="146" r="3" fill="#e5e5ea"/><path d="M380 152 H396 M388 152 L383 162 M388 152 L393 162" stroke="#e5e5ea" stroke-width="1.5" fill="none" stroke-linecap="round" stroke-linejoin="round"/>
 <text x="388" y="180">Accessibility</text>
 <circle cx="420" cy="134" r="6" fill="#30d158"/><path d="M417.3 134 l1.8 1.8 l3.4 -3.9" stroke="#1c1c1e" stroke-width="1.4" fill="none" stroke-linecap="round" stroke-linejoin="round"/>

 <rect x="440" y="124" width="84" height="64" rx="10" fill="rgba(255,255,255,.05)" stroke="rgba(255,255,255,.09)" stroke-width="1"/>
 <rect x="471" y="139" width="22" height="15" rx="2" stroke="#e5e5ea" stroke-width="1.5" fill="none"/><path d="M477 160 H487 M482 154 V160" stroke="#e5e5ea" stroke-width="1.5" fill="none" stroke-linecap="round"/>
 <text x="482" y="180">Screen Rec.</text>
 <circle cx="514" cy="134" r="6" fill="#30d158"/><path d="M511.3 134 l1.8 1.8 l3.4 -3.9" stroke="#1c1c1e" stroke-width="1.4" fill="none" stroke-linecap="round" stroke-linejoin="round"/>

 <rect x="534" y="124" width="84" height="64" rx="10" fill="rgba(255,255,255,.05)" stroke="rgba(255,255,255,.09)" stroke-width="1"/>
 <rect x="565" y="140" width="22" height="13" rx="2" stroke="#e5e5ea" stroke-width="1.5" fill="none"/><circle cx="570" cy="146.5" r="1" fill="#e5e5ea"/><circle cx="576" cy="146.5" r="1" fill="#e5e5ea"/><circle cx="582" cy="146.5" r="1" fill="#e5e5ea"/>
 <text x="576" y="180">Input Mon.</text>

 <rect x="346" y="196" width="84" height="64" rx="10" fill="rgba(255,255,255,.05)" stroke="rgba(255,255,255,.09)" stroke-width="1"/>
 <rect x="377" y="212" width="22" height="13" rx="2" stroke="#e5e5ea" stroke-width="1.5" fill="none"/><circle cx="383" cy="218.5" r="1.4" stroke="#e5e5ea" stroke-width="1.5" fill="none"/><path d="M389 218.5 H395" stroke="#e5e5ea" stroke-width="1.5" fill="none" stroke-linecap="round"/>
 <text x="388" y="252">Full Disk</text>

 <rect x="440" y="196" width="84" height="64" rx="10" fill="rgba(255,255,255,.05)" stroke="rgba(255,255,255,.09)" stroke-width="1"/>
 <rect x="470" y="212" width="24" height="15" rx="2.5" stroke="#e5e5ea" stroke-width="1.5" fill="none"/><circle cx="482" cy="219.5" r="4" stroke="#e5e5ea" stroke-width="1.5" fill="none"/><path d="M476 212 l2 -2.5 h8 l2 2.5" stroke="#e5e5ea" stroke-width="1.5" fill="none" stroke-linecap="round" stroke-linejoin="round"/>
 <text x="482" y="252">Camera</text>
 <circle cx="514" cy="206" r="6" fill="#30d158"/><path d="M511.3 206 l1.8 1.8 l3.4 -3.9" stroke="#1c1c1e" stroke-width="1.4" fill="none" stroke-linecap="round" stroke-linejoin="round"/>

 <rect x="534" y="196" width="84" height="64" rx="10" fill="rgba(255,255,255,.05)" stroke="rgba(255,255,255,.09)" stroke-width="1"/>
 <rect x="573" y="207" width="6" height="12" rx="3" stroke="#e5e5ea" stroke-width="1.5" fill="none"/><path d="M569 217 a7 7 0 0 0 14 0 M576 224 V229 M571 229 H581" stroke="#e5e5ea" stroke-width="1.5" fill="none" stroke-linecap="round" stroke-linejoin="round"/>
 <text x="576" y="252">Microphone</text>

 <rect x="346" y="268" width="84" height="64" rx="10" fill="rgba(255,255,255,.05)" stroke="rgba(255,255,255,.09)" stroke-width="1"/>
 <path d="M388 282 L393 286 L388 290 L393 294 L388 298 L388 282 M383 286 L388 290 L383 294" stroke="#e5e5ea" stroke-width="1.5" fill="none" stroke-linecap="round" stroke-linejoin="round"/>
 <text x="388" y="324">Bluetooth</text>
 <circle cx="420" cy="278" r="6" fill="#30d158"/><path d="M417.3 278 l1.8 1.8 l3.4 -3.9" stroke="#1c1c1e" stroke-width="1.4" fill="none" stroke-linecap="round" stroke-linejoin="round"/>

 <rect x="440" y="268" width="84" height="64" rx="10" fill="rgba(255,255,255,.05)" stroke="rgba(255,255,255,.09)" stroke-width="1"/>
 <path d="M482 281 C476 281 476 289 482 298 C488 289 488 281 482 281 Z" stroke="#e5e5ea" stroke-width="1.5" fill="none" stroke-linejoin="round"/><circle cx="482" cy="287" r="2.2" stroke="#e5e5ea" stroke-width="1.5" fill="none"/>
 <text x="482" y="324">Location</text>
 <circle cx="514" cy="278" r="6" fill="#30d158"/><path d="M511.3 278 l1.8 1.8 l3.4 -3.9" stroke="#1c1c1e" stroke-width="1.4" fill="none" stroke-linecap="round" stroke-linejoin="round"/>

 <rect x="534" y="268" width="84" height="64" rx="10" fill="rgba(255,255,255,.05)" stroke="rgba(255,255,255,.09)" stroke-width="1"/>
 <path d="M570 296 C570 288 573 285 576 285 C579 285 582 288 582 296 Z M573 299 a3 3 0 0 0 6 0" stroke="#e5e5ea" stroke-width="1.5" fill="none" stroke-linecap="round" stroke-linejoin="round"/>
 <text x="576" y="324">Notifications</text>
</g>
</svg>
